<svg width="30" height="30" viewBox="0 0 30 30" fill="none" xmlns="http://www.w3.org/2000/svg">
<path d="M23.75 2.5H22.5V1.25C22.5 0.918479 22.3683 0.600537 22.1339 0.366117C21.8995 0.131696 21.5815 0 21.25 0C20.9185 0 20.6005 0.131696 20.3661 0.366117C20.1317 0.600537 20 0.918479 20 1.25V2.5H10V1.25C10 0.918479 9.8683 0.600537 9.63388 0.366117C9.39946 0.131696 9.08152 0 8.75 0C8.41848 0 8.10054 0.131696 7.86612 0.366117C7.6317 0.600537 7.5 0.918479 7.5 1.25V2.5H6.25C4.59301 2.50198 3.00445 3.1611 1.83277 4.33278C0.661102 5.50445 0.00198482 7.09301 0 8.75L0 23.75C0.00198482 25.407 0.661102 26.9956 1.83277 28.1672C3.00445 29.3389 4.59301 29.998 6.25 30H23.75C25.407 29.998 26.9956 29.3389 28.1672 28.1672C29.3389 26.9956 29.998 25.407 30 23.75V8.75C29.998 7.09301 29.3389 5.50445 28.1672 4.33278C26.9956 3.1611 25.407 2.50198 23.75 2.5ZM2.5 8.75C2.5 7.75544 2.89509 6.80161 3.59835 6.09835C4.30161 5.39509 5.25544 5 6.25 5H23.75C24.7446 5 25.6984 5.39509 26.4017 6.09835C27.1049 6.80161 27.5 7.75544 27.5 8.75V10H2.5V8.75ZM23.75 27.5H6.25C5.25544 27.5 4.30161 27.1049 3.59835 26.4017C2.89509 25.6984 2.5 24.7446 2.5 23.75V12.5H27.5V23.75C27.5 24.7446 27.1049 25.6984 26.4017 26.4017C25.6984 27.1049 24.7446 27.5 23.75 27.5Z" fill="white"/>
<path d="M15 20.625C16.0355 20.625 16.875 19.7855 16.875 18.75C16.875 17.7145 16.0355 16.875 15 16.875C13.9645 16.875 13.125 17.7145 13.125 18.75C13.125 19.7855 13.9645 20.625 15 20.625Z" fill="white"/>
<path d="M8.75 20.625C9.78553 20.625 10.625 19.7855 10.625 18.75C10.625 17.7145 9.78553 16.875 8.75 16.875C7.71447 16.875 6.875 17.7145 6.875 18.75C6.875 19.7855 7.71447 20.625 8.75 20.625Z" fill="white"/>
<path d="M21.25 20.625C22.2855 20.625 23.125 19.7855 23.125 18.75C23.125 17.7145 22.2855 16.875 21.25 16.875C20.2145 16.875 19.375 17.7145 19.375 18.75C19.375 19.7855 20.2145 20.625 21.25 20.625Z" fill="white"/>
</svg>
