<svg width="30" height="30" viewBox="0 0 30 30" fill="none" xmlns="http://www.w3.org/2000/svg">
<path d="M6.875 26.25C6.0462 26.25 5.25134 25.9208 4.66529 25.3347C4.07924 24.7487 3.75 23.9538 3.75 23.125V1.875C3.75 1.37772 3.55246 0.900805 3.20083 0.549175C2.84919 0.197544 2.37228 0 1.875 0C1.37772 0 0.900805 0.197544 0.549175 0.549175C0.197544 0.900805 0 1.37772 0 1.875L0 23.125C0 24.9484 0.724328 26.697 2.01364 27.9864C3.30295 29.2757 5.05164 30 6.875 30H28.125C28.6223 30 29.0992 29.8025 29.4508 29.4508C29.8025 29.0992 30 28.6223 30 28.125C30 27.6277 29.8025 27.1508 29.4508 26.7992C29.0992 26.4475 28.6223 26.25 28.125 26.25H6.875Z" fill="white"/>
<path d="M24.375 22.5C24.8723 22.5 25.3492 22.3025 25.7008 21.9508C26.0525 21.5992 26.25 21.1223 26.25 20.625V13.125C26.25 12.6277 26.0525 12.1508 25.7008 11.7992C25.3492 11.4475 24.8723 11.25 24.375 11.25C23.8777 11.25 23.4008 11.4475 23.0492 11.7992C22.6975 12.1508 22.5 12.6277 22.5 13.125V20.625C22.5 21.1223 22.6975 21.5992 23.0492 21.9508C23.4008 22.3025 23.8777 22.5 24.375 22.5Z" fill="white"/>
<path d="M9.375 22.5C9.87228 22.5 10.3492 22.3025 10.7008 21.9508C11.0525 21.5992 11.25 21.1223 11.25 20.625V13.125C11.25 12.6277 11.0525 12.1508 10.7008 11.7992C10.3492 11.4475 9.87228 11.25 9.375 11.25C8.87772 11.25 8.40081 11.4475 8.04917 11.7992C7.69754 12.1508 7.5 12.6277 7.5 13.125V20.625C7.5 21.1223 7.69754 21.5992 8.04917 21.9508C8.40081 22.3025 8.87772 22.5 9.375 22.5Z" fill="white"/>
<path d="M16.875 22.5C17.3723 22.5 17.8492 22.3025 18.2008 21.9508C18.5525 21.5992 18.75 21.1223 18.75 20.625V6.875C18.75 6.37772 18.5525 5.90081 18.2008 5.54917C17.8492 5.19754 17.3723 5 16.875 5C16.3777 5 15.9008 5.19754 15.5492 5.54917C15.1975 5.90081 15 6.37772 15 6.875V20.625C15 21.1223 15.1975 21.5992 15.5492 21.9508C15.9008 22.3025 16.3777 22.5 16.875 22.5Z" fill="white"/>
</svg>
