<svg width="34" height="34" viewBox="0 0 34 34" fill="none" xmlns="http://www.w3.org/2000/svg">
<g clip-path="url(#clip0_850_705)">
<path d="M1.41667 6.72856H5.29267C5.59673 7.84734 6.2605 8.83499 7.18155 9.53913C8.1026 10.2433 9.22975 10.6248 10.3891 10.6248C11.5485 10.6248 12.6757 10.2433 13.5967 9.53913C14.5178 8.83499 15.1815 7.84734 15.4856 6.72856H32.5833C32.9591 6.72856 33.3194 6.5793 33.5851 6.31362C33.8507 6.04795 34 5.68761 34 5.31189C34 4.93617 33.8507 4.57583 33.5851 4.31016C33.3194 4.04448 32.9591 3.89522 32.5833 3.89522H15.4856C15.1815 2.77644 14.5178 1.78879 13.5967 1.08465C12.6757 0.380519 11.5485 -0.000976562 10.3891 -0.000976562C9.22975 -0.000976562 8.1026 0.380519 7.18155 1.08465C6.2605 1.78879 5.59673 2.77644 5.29267 3.89522H1.41667C1.04094 3.89522 0.680609 4.04448 0.414932 4.31016C0.149256 4.57583 0 4.93617 0 5.31189C0 5.68761 0.149256 6.04795 0.414932 6.31362C0.680609 6.5793 1.04094 6.72856 1.41667 6.72856ZM10.3884 2.83272C10.8787 2.83272 11.3581 2.97812 11.7658 3.25054C12.1735 3.52295 12.4912 3.91015 12.6789 4.36315C12.8665 4.81616 12.9156 5.31464 12.8199 5.79555C12.7243 6.27646 12.4882 6.71821 12.1415 7.06493C11.7947 7.41164 11.353 7.64776 10.8721 7.74342C10.3912 7.83908 9.89269 7.78998 9.43968 7.60234C8.98667 7.4147 8.59948 7.09694 8.32706 6.68924C8.05465 6.28154 7.90925 5.80222 7.90925 5.31189C7.91 4.6546 8.17144 4.02445 8.63621 3.55968C9.10098 3.09491 9.73113 2.83347 10.3884 2.83272Z" fill="#29A5DA"/>
<path d="M32.5833 15.5831H28.7073C28.4038 14.4641 27.7403 13.4761 26.8193 12.7717C25.8983 12.0672 24.7711 11.6855 23.6116 11.6855C22.4521 11.6855 21.3248 12.0672 20.4039 12.7717C19.4829 13.4761 18.8194 14.4641 18.5158 15.5831H1.41667C1.04094 15.5831 0.680609 15.7324 0.414932 15.9981C0.149256 16.2637 0 16.6241 0 16.9998C0 17.3755 0.149256 17.7359 0.414932 18.0015C0.680609 18.2672 1.04094 18.4165 1.41667 18.4165H18.5158C18.8194 19.5355 19.4829 20.5235 20.4039 21.2279C21.3248 21.9324 22.4521 22.314 23.6116 22.314C24.7711 22.314 25.8983 21.9324 26.8193 21.2279C27.7403 20.5235 28.4038 19.5355 28.7073 18.4165H32.5833C32.9591 18.4165 33.3194 18.2672 33.5851 18.0015C33.8507 17.7359 34 17.3755 34 16.9998C34 16.6241 33.8507 16.2637 33.5851 15.9981C33.3194 15.7324 32.9591 15.5831 32.5833 15.5831ZM23.6116 19.479C23.1213 19.479 22.6419 19.3336 22.2342 19.0611C21.8265 18.7887 21.5088 18.4015 21.3211 17.9485C21.1335 17.4955 21.0844 16.997 21.1801 16.5161C21.2757 16.0352 21.5118 15.5935 21.8585 15.2468C22.2053 14.9 22.647 14.6639 23.1279 14.5683C23.6088 14.4726 24.1073 14.5217 24.5603 14.7093C25.0133 14.897 25.4005 15.2147 25.6729 15.6224C25.9453 16.0301 26.0907 16.5095 26.0907 16.9998C26.09 17.6571 25.8286 18.2872 25.3638 18.752C24.899 19.2168 24.2689 19.4782 23.6116 19.479Z" fill="#29A5DA"/>
<path d="M32.5833 27.2712H15.4856C15.1815 26.1524 14.5178 25.1648 13.5967 24.4606C12.6757 23.7565 11.5485 23.375 10.3891 23.375C9.22975 23.375 8.1026 23.7565 7.18155 24.4606C6.2605 25.1648 5.59673 26.1524 5.29267 27.2712H1.41667C1.04094 27.2712 0.680609 27.4205 0.414932 27.6861C0.149256 27.9518 0 28.3121 0 28.6879C0 29.0636 0.149256 29.4239 0.414932 29.6896C0.680609 29.9553 1.04094 30.1045 1.41667 30.1045H5.29267C5.59673 31.2233 6.2605 32.211 7.18155 32.9151C8.1026 33.6192 9.22975 34.0007 10.3891 34.0007C11.5485 34.0007 12.6757 33.6192 13.5967 32.9151C14.5178 32.211 15.1815 31.2233 15.4856 30.1045H32.5833C32.9591 30.1045 33.3194 29.9553 33.5851 29.6896C33.8507 29.4239 34 29.0636 34 28.6879C34 28.3121 33.8507 27.9518 33.5851 27.6861C33.3194 27.4205 32.9591 27.2712 32.5833 27.2712ZM10.3884 31.167C9.89808 31.167 9.41876 31.0216 9.01107 30.7492C8.60337 30.4768 8.28561 30.0896 8.09797 29.6366C7.91032 29.1836 7.86123 28.6851 7.95689 28.2042C8.05255 27.7233 8.28866 27.2816 8.63538 26.9348C8.9821 26.5881 9.42384 26.352 9.90475 26.2563C10.3857 26.1607 10.8841 26.2098 11.3372 26.3974C11.7902 26.5851 12.1774 26.9028 12.4498 27.3105C12.7222 27.7182 12.8676 28.1975 12.8676 28.6879C12.8665 29.345 12.6049 29.975 12.1402 30.4397C11.6755 30.9044 11.0456 31.1659 10.3884 31.167Z" fill="#29A5DA"/>
</g>
<defs>
<clipPath id="clip0_850_705">
<rect width="34" height="34" fill="white"/>
</clipPath>
</defs>
</svg>
