<svg id="Layer_1" data-name="Layer 1" xmlns="http://www.w3.org/2000/svg" stroke='#cccccc' stroke-width='2.4' outline="none" viewBox="0 0 96 96" border="none" ><path fill="#cccccc" stroke-width='1' outline="none" stroke-linecap="none" stroke-linejoin="none" border='none' d="M50.76,78.45A41.22,41.22,0,0,1,21.6,8.08,1,1,0,0,1,23,9.49,39.24,39.24,0,0,0,78.5,65a1,1,0,0,1,1.41,1.41A41.07,41.07,0,0,1,50.76,78.45Z"/><path d="M79.21,66.69a1,1,0,0,1-.66-.25L73,61.63a1,1,0,1,1,1.31-1.51l5.52,4.81A1,1,0,0,1,80,66.34,1,1,0,0,1,79.21,66.69Z"/><path d="M19.65,10.82a4.41,4.41,0,1,1,4.41-4.41A4.41,4.41,0,0,1,19.65,10.82Zm0-6.82a2.41,2.41,0,1,0,2.41,2.41A2.41,2.41,0,0,0,19.65,4Z"/><path d="M82.07,72.6a4.42,4.42,0,1,1,4.41-4.42A4.41,4.41,0,0,1,82.07,72.6Zm0-6.83a2.42,2.42,0,1,0,2.41,2.41A2.41,2.41,0,0,0,82.07,65.77Z"/><path d="M54.76,85H48.17a1,1,0,0,1-1-1V77.37a1,1,0,0,1,2,0V83h4.59V77.27a1,1,0,0,1,2,0V84A1,1,0,0,1,54.76,85Z"/><path d="M63.05,89H39.87a1,1,0,0,1-1-1V84a1,1,0,0,1,1-1H63.05a1,1,0,0,1,1,1v4A1,1,0,0,1,63.05,89ZM40.87,87H62.05V85H40.87Z"/><path d="M76,94H26.88a1,1,0,0,1-1-1V88a1,1,0,0,1,1-1H76a1,1,0,0,1,1,1v5A1,1,0,0,1,76,94ZM27.88,92H75V89H27.88Z"/><path d="M50.76,71.18A33.95,33.95,0,1,1,84.7,37.24,34,34,0,0,1,50.76,71.18Zm0-65.89a31.95,31.95,0,1,0,31.94,32A32,32,0,0,0,50.76,5.29Z"/><path d="M39.29,24.45a19.75,19.75,0,0,1-3.54-.34c-4.77-.87-7.82-2.62-9-5.21a6.52,6.52,0,0,1-.15-5L21.64,9.53A1,1,0,1,1,23,8l5.46,4.87a1,1,0,0,1,.21,1.23,4.69,4.69,0,0,0-.11,3.93c.93,1.93,3.55,3.34,7.58,4.07,6.24,1.14,8.64-1,10.22-2.49.81-.73,1.57-1.42,2.58-1.27s1.77,1.18,2.41,2.26a4.39,4.39,0,0,0,.57.81,17.46,17.46,0,0,0,1.17-3.58c.75-2.89,1.39-5.38,3.2-5.38,1.27,0,5.07-3,7.86-5.76a1,1,0,0,1,1.41,1.42c-1.06,1-6.4,6.21-9.17,6.34-.47.41-1,2.57-1.36,3.87-.72,2.78-1.28,5-2.84,5.18-1.22.17-2-1-2.57-1.88-.67-1.15-1-1.29-1-1.31a9.58,9.58,0,0,0-.91.78A11.25,11.25,0,0,1,39.29,24.45Z"/><path d="M54.72,70.94a1,1,0,0,1-1-.78c-.13-.57-1.08-3.52-7.58-5.94-7.69-2.87-18-2.17-18.07-2.16a1,1,0,1,1-.14-2c.43,0,10.8-.74,18.91,2.29,7.09,2.63,8.54,6,8.83,7.38a1,1,0,0,1-.76,1.19A.82.82,0,0,1,54.72,70.94Z"/><path d="M69.93,54c-3.55,0-8.81-5.12-9.86-6.17-2.57-1.22-2.87-1-3.94,0a11.94,11.94,0,0,1-4.05,2.51c-2.14.82-4.5.28-6.64-1.52s-3.6-4.51-3.28-6.14a1.78,1.78,0,0,1,1.21-1.4c1.84-.59,4.86-5,5.09-6.4s1.65-2.7,3.53-3.6a6.66,6.66,0,0,1,6.27-.06,6,6,0,0,0,2.06.66,13.84,13.84,0,0,1,10,7.44,2.55,2.55,0,0,0,.69.9c1.61,1.17,2.58,4,2.82,6.39.29,2.7-.28,5-1.59,6.43A2.93,2.93,0,0,1,70,54ZM57.55,45a8.65,8.65,0,0,1,3.54,1.09,1,1,0,0,1,.28.2C63.55,48.51,67.75,52,70,52a.94.94,0,0,0,.77-.3,6.41,6.41,0,0,0,1.09-4.88c-.25-2.39-1.22-4.4-2-5a4.44,4.44,0,0,1-1.28-1.57A11.88,11.88,0,0,0,60,33.84,8.26,8.26,0,0,1,57.28,33a5.63,5.63,0,0,0-6.85,2.24c-.32,1.93-3.65,7-6.32,7.93a6.55,6.55,0,0,0,2.17,3.75c1,.94,2.94,2.41,5.09,1.58a9.93,9.93,0,0,0,3.43-2.14A4,4,0,0,1,57.55,45Z"/><path d="M19.65,48.84a1,1,0,0,1-.77-.36A1,1,0,0,1,19,47.07c2.7-2.26,3.92-4.36,3.61-6.24-.51-3.12-5-4.93-5.08-4.94A1,1,0,0,1,18.26,34c.23.09,5.62,2.23,6.32,6.48.43,2.63-1,5.35-4.29,8.11A1,1,0,0,1,19.65,48.84Z"/></svg>