<svg width="659" height="750" viewBox="0 0 659 750" fill="none" xmlns="http://www.w3.org/2000/svg">
<ellipse cx="21.8606" cy="21.2721" rx="21.8606" ry="21.2721" transform="matrix(-0.99998 0.00628601 -0.00559829 0.999984 132.448 468.463)" fill="#3EB9CA"/>
<path d="M111.777 169.809L110.215 448.723" stroke="#3EB9CA" stroke-width="4"/>
<path d="M154.885 323.519C154.885 323.519 148.96 259.311 136.11 210.429L264.227 213.94C265.166 213.965 266.087 213.677 266.844 213.119L401.651 113.829L434.422 256.379C269.091 242.167 154.885 323.519 154.885 323.519Z" fill="#3EB9CA"/>
<path d="M461.252 54.6223L262.605 168.039L164.56 176.617L153.666 177.57L225.291 117.949L213.471 108.313L120.984 180.429L99.1959 182.335L12.0443 189.96L217.879 33.2315L461.252 54.6223Z" fill="#3EB9CA"/>
<path d="M622.506 297.839L619.53 687.437L494.833 687.999L495.155 645.88L493.652 645.887C472.33 683.888 420.364 701.671 371.537 701.891C239.328 702.487 162.696 605.962 163.548 494.348C164.524 366.588 263.541 286.119 374.716 285.619C443.074 285.311 481.149 316.025 495.99 339.825L497.492 339.818L497.809 298.401L622.506 297.839ZM288.234 495.19C287.956 531.693 316.029 593.338 391.147 593C469.271 592.648 496.034 530.756 496.324 492.849C496.683 445.816 462.525 394.026 391.914 394.344C320.551 394.665 288.572 450.966 288.234 495.19Z" fill="#3EB9CA"/>
</svg>
