<svg width="45" height="55" viewBox="0 0 45 55" fill="none" xmlns="http://www.w3.org/2000/svg">
<path d="M7.53495 37.0577C6.71054 37.0632 6.04587 36.3772 6.05036 35.5255C6.05485 34.6738 6.72681 33.9788 7.55122 33.9733C8.37563 33.9678 9.0403 34.6538 9.03581 35.5056C9.03132 36.3573 8.35936 37.0522 7.53495 37.0577Z" fill="#29A5DA"/>
<path d="M7.63303 12.311L7.52637 32.5323" stroke="#29A5DA"/>
<path d="M10.576 23.455C10.576 23.455 10.1714 18.7999 9.29395 15.2559L18.0424 15.5105C18.1066 15.5123 18.1695 15.4914 18.2212 15.451L27.4265 8.25244L29.6643 18.5873C18.3746 17.5569 10.576 23.455 10.576 23.455Z" fill="#29A5DA"/>
<path d="M31.4965 3.96001L17.9319 12.1827L11.2368 12.8046L10.4929 12.8737L15.3839 8.5512L14.5767 7.85259L8.26124 13.081L6.77344 13.2192L0.822266 13.772L14.8777 2.40918L31.4965 3.96001Z" fill="#29A5DA"/>
<path d="M40.7156 21.5111L40.5123 49.757L31.9974 49.7977L32.0194 46.7441L31.9167 46.7446C30.4607 49.4997 26.9122 50.7889 23.5781 50.8049C14.5501 50.8481 9.3173 43.85 9.37548 35.758C9.44213 26.4954 16.2035 20.6614 23.7951 20.6252C28.463 20.6028 31.063 22.8296 32.0764 24.5551L32.1789 24.5546L32.2006 21.5519L40.7156 21.5111ZM17.8897 35.8191C17.8707 38.4655 19.7877 42.9348 24.9171 42.9103C30.2519 42.8848 32.0794 38.3976 32.0992 35.6493C32.1237 32.2394 29.7912 28.4847 24.9695 28.5077C20.0965 28.531 17.9128 32.6128 17.8897 35.8191Z" fill="#29A5DA"/>
</svg>
