<svg id="Layer_1" data-name="Layer 1" xmlns="http://www.w3.org/2000/svg" viewBox="0 0 200 200"><defs><style>.cls-1{fill:#cccccc;}</style></defs><title>Wondicon - UI (Free)</title><path class="cls-1" d="M170.69,175.69H29.31a5,5,0,0,1,0-10H170.69a5,5,0,0,1,0,10Z"/><path class="cls-1" d="M84.64,155H49.28a5,5,0,0,1-5-5V114.64a5,5,0,0,1,1.47-3.53l86-86a5,5,0,0,1,3.53-1.47h0a5,5,0,0,1,3.54,1.47l35.35,35.35a5,5,0,0,1,0,7.08l-86,86A5,5,0,0,1,84.64,155ZM54.28,145H82.56l81-81L135.28,35.72l-81,81Z"/><path class="cls-1" d="M84.64,155a5,5,0,0,1-3.54-1.46L45.75,118.18a5,5,0,0,1,7.07-7.07l35.35,35.35A5,5,0,0,1,84.64,155Z"/><path class="cls-1" d="M154,85.65a5,5,0,0,1-3.53-1.46L115.09,48.83a5,5,0,1,1,7.08-7.07l35.35,35.36A5,5,0,0,1,154,85.65Z"/><path class="cls-1" d="M67,137.32a5,5,0,0,1-3.54-8.53l68-68a5,5,0,0,1,7.07,7.07l-68,68A5,5,0,0,1,67,137.32Z"/></svg>