<svg xmlns="http://www.w3.org/2000/svg"  viewBox="0 0 64 64" id="math"><path fill="#cccccc" stroke-width='3' d="M46 55H18a5 5 0 0 1-5-5V14a5 5 0 0 1 5-5h28a5 5 0 0 1 5 5v36a5 5 0 0 1-5 5ZM18 11a3 3 0 0 0-3 3v36a3 3 0 0 0 3 3h28a3 3 0 0 0 3-3V14a3 3 0 0 0-3-3Z"></path><path fill="#cccccc" d="M29 35h-6a1 1 0 0 1 0-2h6a1 1 0 0 1 0 2Z"></path><path fill="#cccccc" d="M26 38a1 1 0 0 1-1-1v-6a1 1 0 0 1 2 0v6a1 1 0 0 1-1 1zm15-3h-6a1 1 0 0 1 0-2h6a1 1 0 0 1 0 2zM23.88 47.12a1 1 0 0 1-.71-.29 1 1 0 0 1 0-1.42l4.24-4.24a1 1 0 0 1 1.42 1.42l-4.24 4.24a1 1 0 0 1-.71.29z"></path><path fill="#cccccc" d="M28.12 47.12a1 1 0 0 1-.71-.29l-4.24-4.24a1 1 0 0 1 1.42-1.42l4.24 4.24a1 1 0 0 1 0 1.42 1 1 0 0 1-.71.29zm7.76 0a1 1 0 0 1-.71-.29 1 1 0 0 1 0-1.42l4.24-4.24a1 1 0 0 1 1.42 1.42l-4.24 4.24a1 1 0 0 1-.71.29z"></path><circle cx="36" cy="42" r="1" fill="#cccccc"></circle><circle cx="40" cy="46" r="1" fill="#cccccc"></circle><path fill="#cccccc" d="M43.5 25h-23a1 1 0 0 1-1-1v-8a1 1 0 0 1 2 0v7h21v-6h-18a1 1 0 0 1 0-2h19a1 1 0 0 1 1 1v8a1 1 0 0 1-1 1Z"></path></svg>