<svg width="33" height="32" viewBox="0 0 33 32" fill="none" xmlns="http://www.w3.org/2000/svg">
<path d="M32 2L15.5 25.5L9.5 19.5L5.5 15L8.5 17L14.8368 20.1684C15.2307 20.3653 15.7071 20.2814 16.01 19.9617L24.5 11L32 2Z" fill="#2CC545"/>
<path d="M31 16C31 24.2843 24.2843 31 16 31C7.71573 31 1 24.2843 1 16C1 7.71573 7.71573 1 16 1C24.2843 1 31 7.71573 31 16Z" stroke="#2CC545"/>
<path d="M32 2L15.5 25.5L9.5 19.5L5.5 15L8.5 17L14.8368 20.1684C15.2307 20.3653 15.7071 20.2814 16.01 19.9617L24.5 11L32 2Z" stroke="#2CC545"/>
</svg>
