<svg width="23" height="30" viewBox="0 0 23 30" fill="none" xmlns="http://www.w3.org/2000/svg">
<path d="M11.25 15C12.7333 15 14.1834 14.5601 15.4167 13.736C16.6501 12.9119 17.6114 11.7405 18.1791 10.3701C18.7467 8.99966 18.8952 7.49167 18.6059 6.03681C18.3165 4.58196 17.6022 3.24559 16.5533 2.1967C15.5044 1.14781 14.168 0.433502 12.7132 0.144113C11.2583 -0.145275 9.75031 0.00324964 8.37986 0.570906C7.00942 1.13856 5.83808 2.09985 5.01397 3.33322C4.18987 4.56658 3.75 6.01663 3.75 7.49999C3.75199 9.48849 4.5428 11.395 5.94889 12.8011C7.35498 14.2072 9.26147 14.998 11.25 15ZM11.25 2.5C12.2389 2.5 13.2056 2.79324 14.0278 3.34265C14.8501 3.89205 15.4909 4.67295 15.8694 5.58657C16.2478 6.5002 16.3468 7.50553 16.1539 8.47544C15.961 9.44534 15.4848 10.3363 14.7855 11.0355C14.0862 11.7348 13.1953 12.211 12.2254 12.4039C11.2555 12.5968 10.2502 12.4978 9.33657 12.1194C8.42294 11.7409 7.64205 11.1001 7.09264 10.2778C6.54324 9.45559 6.24999 8.48889 6.24999 7.49999C6.24999 6.17391 6.77678 4.90214 7.71446 3.96446C8.65214 3.02678 9.9239 2.5 11.25 2.5Z" fill="#29A5DA"/>
<path d="M11.25 17.5C8.26731 17.5033 5.40776 18.6896 3.2987 20.7987C1.18963 22.9078 0.00330856 25.7673 0 28.75C0 29.0815 0.131696 29.3994 0.366116 29.6339C0.600536 29.8683 0.918477 30 1.25 30C1.58152 30 1.89946 29.8683 2.13388 29.6339C2.3683 29.3994 2.49999 29.0815 2.49999 28.75C2.49999 26.4293 3.42186 24.2037 5.0628 22.5628C6.70374 20.9219 8.92933 20 11.25 20C13.5706 20 15.7962 20.9219 17.4371 22.5628C19.0781 24.2037 20 26.4293 20 28.75C20 29.0815 20.1316 29.3994 20.3661 29.6339C20.6005 29.8683 20.9184 30 21.2499 30C21.5815 30 21.8994 29.8683 22.1338 29.6339C22.3683 29.3994 22.4999 29.0815 22.4999 28.75C22.4966 25.7673 21.3103 22.9078 19.2013 20.7987C17.0922 18.6896 14.2326 17.5033 11.25 17.5Z" fill="#29A5DA"/>
</svg>
